<svg width="59" height="82" viewBox="0 0 59 82" fill="none" xmlns="http://www.w3.org/2000/svg">
<path d="M58.0942 16.115L52.8017 75.4047L29.0116 82L5.28702 75.4138L0 16.115H58.0942Z" fill="#E44D26"/>
<path d="M29.0472 76.9586L48.2709 71.6293L52.7934 20.9634H29.0472V76.9586Z" fill="#F16529"/>
<path d="M18.7586 35.5092H29.0471V28.2365H10.8104L10.9844 30.1876L12.772 50.2294H29.0471V42.9566H19.4233L18.7586 35.5092ZM20.3977 53.8659H13.097L14.1158 65.2852L29.0136 69.4207L29.0471 69.4116V61.8448L29.0152 61.8532L20.9156 59.6662L20.3977 53.8659Z" fill="#EBEBEB"/>
<path d="M5.40491 0H9.10084V3.65152H12.4818V0H16.178V11.0577H12.4821V7.35497H9.10106V11.0577H5.40513L5.40491 0ZM21.038 3.66701H17.7848V0H27.9899V3.66701H24.7346V11.0577H21.0387V3.66701H21.038ZM29.6095 0H33.4632L35.8338 3.88539L38.2021 0H42.0575V11.0577H38.3766V5.57691L35.8338 9.50853H35.77L33.2257 5.57691V11.0577H29.6095V0ZM43.8968 0H47.5938V7.40279H52.7914V11.0577H43.8965V0H43.8968Z" fill="black"/>
<path d="M29.0221 50.2294H37.9777L37.1333 59.6616L29.0219 61.851V69.4173L43.9315 65.2852L44.0408 64.0564L45.7501 44.9096L45.9275 42.9566H29.0221V50.2294ZM29.0221 35.4914V35.5092H46.5892L46.735 33.8746L47.0665 30.1876L47.2403 28.2365H29.0221V35.4914Z" fill="white"/>
</svg>
