<svg width="82" height="82" viewBox="0 0 82 82" fill="none" xmlns="http://www.w3.org/2000/svg">
<path d="M81.421 11.1165C81.421 5.17504 76.6048 0.358521 70.6637 0.358521C65.2389 0.358521 60.7544 4.37484 60.0156 9.59594L59.9067 9.53846C51.1092 5.57035 43.6988 12.5988 43.6988 12.5988L24.097 32.2978L31.8421 39.757L47.6194 24.2556C54.9867 16.8875 58.9983 21.8745 58.9983 21.8745C64.5445 26.5601 59.1893 32.1066 59.1893 32.1066L67.1259 39.757C73.607 32.7567 73.9828 26.6473 72.0127 21.7873C77.3168 21.1231 81.421 16.6007 81.421 11.1165Z" fill="#F9AE41"/>
<path d="M72.1128 60.5929C72.1495 60.5242 72.1702 60.4843 72.1702 60.4843C76.1384 51.6859 69.1101 44.275 69.1101 44.275L49.412 24.6714L41.9536 32.4176L57.454 48.1955C64.8214 55.5637 59.8347 59.5758 59.8347 59.5758C55.1497 65.1223 49.6036 59.7668 49.6036 59.7668L41.9536 67.7036C48.9532 74.1851 55.0625 74.5609 59.9218 72.5907C60.586 77.8952 65.1084 81.9999 70.5923 81.9999C76.5334 81.9999 81.3493 77.1834 81.3493 71.242C81.3493 65.8168 77.3335 61.3321 72.1128 60.5929Z" fill="#EE4035"/>
<path d="M49.5795 42.2429L33.8023 57.744C26.4346 65.1125 22.423 60.1257 22.423 60.1257C16.8769 55.4398 22.2317 49.8937 22.2317 49.8937L14.2957 42.2429C7.8147 49.2429 7.43857 55.3523 9.40829 60.2123C4.10419 60.8768 0 65.3989 0 70.8834C0 76.8249 4.81622 81.6411 10.7576 81.6411C16.1824 81.6414 20.6669 77.6254 21.4057 72.4043C21.4747 72.441 21.5146 72.4615 21.5146 72.4615C30.3124 76.4305 37.7226 69.4012 37.7226 69.4012L57.3246 49.7018L49.5795 42.2429Z" fill="#4F91CD"/>
<path d="M23.9675 33.8044C16.5998 26.4363 21.5859 22.4241 21.5859 22.4241C26.2718 16.8776 31.8176 22.2331 31.8176 22.2331L39.4676 14.2966C32.468 7.81519 26.359 7.43936 21.4993 9.4092C20.8352 4.10445 16.3134 0 10.8286 0C4.88844 0 0.072538 4.81652 0.0718994 10.758C0.0718994 16.1834 4.08765 20.6682 9.30873 21.4071C9.27201 21.4761 9.25158 21.5163 9.25158 21.5163C5.28276 30.314 12.3114 37.7246 12.3114 37.7246L32.0098 57.3282L39.4682 49.5827L23.9675 33.8044Z" fill="#7AC043"/>
</svg>
