<svg width="84" height="84" viewBox="0 0 84 84" fill="none" xmlns="http://www.w3.org/2000/svg">
<path d="M71.4 0H12.6C5.64121 0 0 5.64121 0 12.6V71.4C0 78.3588 5.64121 84 12.6 84H71.4C78.3588 84 84 78.3588 84 71.4V12.6C84 5.64121 78.3588 0 71.4 0Z" fill="#F7DF1E"/>
<path d="M53.1562 60.7031C54.7969 63.4922 57.0938 65.4609 60.8672 65.4609C64.1484 65.4609 66.2812 63.8203 66.2812 61.5234C66.2812 58.8984 64.1484 57.9141 60.5391 56.2734L58.5703 55.4531C52.8281 52.9922 49.0547 50.0391 49.0547 43.6406C49.0547 37.7344 53.4844 33.1406 60.5391 33.1406C65.625 33.1406 69.2344 34.9453 71.6953 39.5391L65.625 43.4766C64.3125 41.0156 62.8359 40.0312 60.5391 40.0312C58.2422 40.0312 56.7656 41.5078 56.7656 43.4766C56.7656 45.7734 58.2422 46.7578 61.6875 48.2344L63.6562 49.0547C70.3828 52.0078 74.1562 54.7969 74.1562 61.5234C74.1562 68.5781 68.5781 72.5156 61.0312 72.5156C53.6484 72.5156 48.8906 69.0703 46.5938 64.4766L53.1562 60.7031ZM25.2656 61.3594C26.5781 63.4922 27.5625 65.4609 30.3516 65.4609C32.9766 65.4609 34.6172 64.4766 34.6172 60.5391V33.3047H42.4922V60.2109C42.4922 68.4141 37.7344 72.0234 30.6797 72.0234C24.2812 72.0234 20.6719 68.7422 18.8672 64.8047L25.2656 61.3594Z" fill="black"/>
</svg>
