<svg width="110" height="82" viewBox="0 0 110 82" fill="none" xmlns="http://www.w3.org/2000/svg">
<path d="M94.1521 47.1386C90.3375 47.1586 87.0221 48.0773 84.2461 49.4353C83.2275 47.4182 82.209 45.6207 82.0292 44.3026C81.8295 42.7648 81.5898 41.8261 81.8295 39.9887C82.0691 38.1513 83.1476 35.535 83.1277 35.3353C83.1077 35.1356 82.888 34.1969 80.6911 34.1769C78.4942 34.157 76.5969 34.5963 76.3772 35.1755C76.1575 35.7547 75.7381 37.0728 75.4585 38.4309C75.079 40.4281 71.0647 47.558 68.768 51.2927C68.029 49.8348 67.3899 48.5566 67.2501 47.538C67.0504 46.0002 66.8107 45.0615 67.0504 43.2241C67.2901 41.3867 68.3685 38.7704 68.3486 38.5707C68.3286 38.371 68.1089 37.4323 65.912 37.4124C63.7151 37.3924 61.8178 37.8318 61.5981 38.4109C61.3784 38.9901 61.1388 40.3482 60.6794 41.6663C60.2201 42.9845 54.8876 54.8876 53.4896 57.9633C52.7706 59.541 52.1515 60.7993 51.7121 61.6581C51.7121 61.6581 51.6921 61.718 51.6322 61.8178C51.2527 62.5568 51.0331 62.9562 51.0331 62.9562C51.0331 62.9562 51.0331 62.9562 51.0331 62.9762C50.7335 63.5154 50.4139 64.0147 50.2542 64.0147C50.1343 64.0147 49.9146 62.5768 50.2941 60.6195C51.093 56.4854 52.9903 50.0545 52.9703 49.8348C52.9703 49.715 53.3298 48.5965 51.7321 48.0174C50.1743 47.4382 49.6151 48.3968 49.4753 48.3968C49.3355 48.3968 49.2356 48.7363 49.2356 48.7363C49.2356 48.7363 50.9731 41.5066 45.9203 41.5066C42.7647 41.5066 38.4109 44.9617 36.254 48.0773C34.8959 48.8162 32 50.394 28.9044 52.0916C27.726 52.7507 26.5077 53.4097 25.3694 54.0288C25.2895 53.949 25.2096 53.8491 25.1297 53.7692C19.0183 47.2385 7.71433 42.625 8.19365 33.8574C8.3734 30.6619 9.47184 22.2738 29.9029 12.0882C46.7192 3.7999 60.1002 6.09665 62.417 11.1894C65.7323 18.4592 55.2471 31.9601 37.8717 33.9173C31.241 34.6563 27.766 32.0999 26.8872 31.1412C25.9685 30.1426 25.8287 30.0827 25.4892 30.2824C24.93 30.582 25.2895 31.4807 25.4892 32C26.0085 33.3581 28.1454 35.7547 31.7603 36.933C34.9558 37.9716 42.7248 38.5507 52.1315 34.9159C62.6566 30.8417 70.885 19.5177 68.4684 10.0311C66.0518 0.404703 50.0744 -2.77081 34.9558 2.6016C25.9685 5.79707 16.2223 10.83 9.21221 17.3807C0.883993 25.1697 -0.434142 31.9401 0.105095 34.7761C2.04235 44.8418 15.9227 51.3926 21.4749 56.2457C21.1953 56.4055 20.9356 56.5453 20.7159 56.6651C17.9399 58.0432 7.35484 63.5753 4.71857 69.4271C1.72281 76.0577 5.19789 80.811 7.49464 81.4501C14.6246 83.4273 21.9542 79.8723 25.8886 74.0006C29.8231 68.1289 29.3437 60.4997 27.5263 57.0046C27.5063 56.9647 27.4864 56.9247 27.4464 56.8848C28.1654 56.4654 28.9044 56.026 29.6233 55.6066C31.0413 54.7678 32.4394 53.9889 33.6377 53.3498C32.9586 55.2072 32.4593 57.424 32.2197 60.6195C31.9201 64.3742 33.4579 69.2473 35.4751 71.1646C36.3738 72.0034 37.4323 72.0234 38.1113 72.0234C40.468 72.0234 41.5265 70.0662 42.7048 67.7494C44.1428 64.9134 45.441 61.6181 45.441 61.6181C45.441 61.6181 43.8233 70.5255 48.217 70.5255C49.8148 70.5255 51.4325 68.4485 52.1515 67.3899V67.4099C52.1515 67.4099 52.1914 67.35 52.2713 67.2102C52.4311 66.9506 52.5309 66.7908 52.5309 66.7908V66.7509C53.17 65.6324 54.608 63.096 56.745 58.882C59.5011 53.4497 62.1573 46.6593 62.1573 46.6593C62.1573 46.6593 62.397 48.3169 63.2158 51.073C63.6951 52.6907 64.6937 54.4682 65.4926 56.1858C64.8535 57.0845 64.4541 57.5838 64.4541 57.5838C64.4541 57.5838 64.4541 57.5838 64.474 57.6038C63.9548 58.2828 63.3956 59.0218 62.7764 59.7408C60.5995 62.3371 58.0032 65.3129 57.6437 66.1717C57.2243 67.1902 57.3242 67.9292 58.123 68.5283C58.7022 68.9677 59.7407 69.0276 60.7992 68.9677C62.7565 68.8279 64.1345 68.3486 64.8136 68.049C65.8721 67.6696 67.1103 67.0904 68.2687 66.2316C70.4057 64.6538 71.7038 62.397 71.584 59.4212C71.5241 57.7835 70.9848 56.1459 70.3258 54.608C70.5255 54.3284 70.7052 54.0488 70.9049 53.7692C74.2802 48.8362 76.8965 43.4239 76.8965 43.4239C76.8965 43.4239 77.1361 45.0815 77.955 47.8376C78.3544 49.2356 79.1732 50.7535 79.8922 52.2314C76.7167 54.8077 74.7595 57.8035 74.0605 59.7607C72.8023 63.3956 73.7809 65.0333 75.6382 65.4127C76.4771 65.5925 77.6754 65.1931 78.5541 64.8136C79.6725 64.4541 80.9907 63.835 82.2489 62.9163C84.3859 61.3385 86.443 59.1416 86.3231 56.1658C86.2632 54.8077 85.9037 53.4696 85.4044 52.1715C88.1006 51.0531 91.5757 50.4339 96.0094 50.9532C105.516 52.0716 107.393 58.0032 107.034 60.4997C106.674 62.9962 104.677 64.3542 104.018 64.7736C103.359 65.1931 103.139 65.3329 103.199 65.6324C103.279 66.0718 103.599 66.0518 104.158 65.972C104.937 65.8322 109.151 63.9548 109.331 59.3613C109.63 53.4896 104.038 47.0787 94.1521 47.1386ZM20.8158 71.8636C17.6603 75.2988 13.2665 76.5969 11.3692 75.4985C9.33204 74.3201 10.1309 69.2473 14.0054 65.6125C16.3621 63.3956 19.3978 61.3385 21.415 60.0803C21.8743 59.8007 22.5533 59.4012 23.3722 58.902C23.512 58.8221 23.5919 58.7821 23.5919 58.7821C23.7516 58.6823 23.9114 58.5824 24.0712 58.4825C25.4892 63.6752 24.1311 68.2487 20.8158 71.8636ZM43.7833 56.2457C42.6849 58.9219 40.3881 65.7722 38.9901 65.3928C37.7918 65.0732 37.0528 59.8806 38.7504 54.7478C39.6092 52.1715 41.4266 49.0958 42.4851 47.8975C44.2027 45.9802 46.1 45.3411 46.5594 46.12C47.1386 47.1386 44.4623 54.5681 43.7833 56.2457ZM62.7365 65.3129C62.2771 65.5525 61.8378 65.7123 61.6381 65.5925C61.4983 65.5126 61.8378 65.1931 61.8378 65.1931C61.8378 65.1931 64.2144 62.6367 65.1531 61.4783C65.6923 60.7993 66.3314 60.0004 67.0105 59.1017V59.3613C67.0105 62.417 64.0546 64.4741 62.7365 65.3129ZM77.3558 61.9776C77.0163 61.7379 77.0762 60.9391 78.2146 58.4426C78.654 57.464 79.6925 55.8263 81.47 54.2485C81.6697 54.8876 81.8095 55.5068 81.7896 56.0859C81.7696 59.9405 79.0135 61.3785 77.3558 61.9776Z" fill="#CD6799"/>
</svg>
