<svg width="194" height="81" viewBox="0 0 194 81" fill="none" xmlns="http://www.w3.org/2000/svg">
<path d="M116.221 27.57C111.969 27.57 108.803 29.6579 108.803 34.6829C108.803 38.4689 110.89 41.097 115.992 41.097C120.317 41.097 123.255 38.5488 123.255 34.5265C123.255 29.9683 120.626 27.57 116.221 27.57ZM107.717 63.0494C106.711 64.2843 105.708 65.5963 105.708 67.1448C105.708 70.2339 109.648 71.1636 115.059 71.1636C119.542 71.1636 125.648 70.8497 125.648 66.6818C125.648 64.2046 122.711 64.0512 118.999 63.8184L107.717 63.0494ZM130.594 27.8037C131.983 29.5818 133.454 32.0555 133.454 35.6107C133.454 44.1893 126.729 49.2128 116.993 49.2128C114.518 49.2128 112.276 48.9044 110.886 48.5186L108.335 52.6142L115.908 53.0769C129.28 53.9288 137.161 54.316 137.161 64.5917C137.161 73.4822 129.357 78.5029 115.908 78.5029C101.92 78.5029 96.5872 74.9472 96.5872 68.8423C96.5872 65.3629 98.1332 63.5122 100.838 60.9578C98.287 59.8794 97.438 57.9482 97.438 55.8605C97.438 54.159 98.287 52.6137 99.6803 51.1442C101.071 49.6771 102.616 48.2067 104.471 46.5069C100.685 44.6523 97.8243 40.6332 97.8243 34.9132C97.8243 26.0263 103.699 19.9229 115.521 19.9229C118.845 19.9229 120.856 20.2288 122.634 20.6954H137.706V27.2631L130.594 27.8037Z" fill="#413000"/>
<path d="M151.309 13.759C146.903 13.759 144.353 11.2062 144.353 6.79921C144.353 2.39774 146.903 0 151.309 0C155.792 0 158.343 2.39774 158.343 6.79921C158.343 11.2061 155.792 13.759 151.309 13.759ZM141.338 60.2048V54.1022L145.281 53.5628C146.363 53.4059 146.517 53.1759 146.517 52.0139V29.2918C146.517 28.4434 146.286 27.9001 145.511 27.67L141.338 26.2003L142.188 19.9423H158.187V52.0144C158.187 53.2533 158.262 53.4065 159.424 53.5633L163.367 54.1027V60.2054H141.337" fill="#413000"/>
<path d="M193.929 57.2096C190.604 58.8307 185.736 60.2994 181.328 60.2994C172.132 60.2994 168.655 56.5931 168.655 47.856V27.6084C168.655 27.1456 168.655 26.8352 168.034 26.8352H162.625V19.957C169.428 19.182 172.131 15.7807 172.982 7.35657H180.325V18.335C180.325 18.8741 180.325 19.1076 180.944 19.1076H191.841V26.835H180.325V45.3058C180.325 49.8664 181.409 51.6425 185.58 51.6425C187.747 51.6425 189.985 51.1031 191.84 50.4069L193.929 57.2096Z" fill="#413000"/>
<path d="M79.4131 36.9272L44.0721 1.59066C42.0387 -0.444609 38.738 -0.444609 36.702 1.59066L29.3639 8.92952L38.6721 18.2377C40.836 17.5071 43.3163 17.997 45.0404 19.7214C46.7735 21.4566 47.2598 23.9581 46.5109 26.1292L55.4823 35.1007C57.6528 34.3527 60.157 34.836 61.8902 36.5722C64.3132 38.9945 64.3132 42.9196 61.8902 45.3426C59.4668 47.7663 55.5417 47.7663 53.1169 45.3426C51.295 43.5192 50.8444 40.8423 51.7672 38.5975L43.4003 30.2306L43.3996 52.2479C43.9903 52.5403 44.5478 52.9306 45.0401 53.4208C47.4624 55.8428 47.4624 59.7672 45.0401 62.1933C42.617 64.6153 38.6901 64.6153 36.2697 62.1933C33.847 59.7674 33.847 55.843 36.2697 53.4208C36.8684 52.8231 37.5612 52.3707 38.3004 52.0675V29.8456C37.5608 29.5437 36.8688 29.0947 36.2692 28.4922C34.4342 26.6586 33.9922 23.9653 34.9333 21.7119L25.7573 12.5344L1.52693 36.764C-0.508978 38.8008 -0.508978 42.1015 1.52693 44.1369L36.8657 79.4736C38.9003 81.5089 42.1998 81.5089 44.2373 79.4736L79.4126 44.3039C81.4479 42.2676 81.4479 38.9659 79.4126 36.9302" fill="#F05133"/>
</svg>
