<svg width="85" height="82" viewBox="0 0 85 82" fill="none" xmlns="http://www.w3.org/2000/svg">
<path d="M14.8932 0H69.2094C77.4445 0 84.1026 6.65812 84.1026 14.8932V67.1069C84.1026 75.3419 77.4445 82 69.2094 82H14.8932C6.65812 82 0 75.3419 0 67.1069V14.8932C0 6.65812 6.65812 0 14.8932 0Z" fill="#001E36"/>
<path d="M18.9231 57.5052V21.4462C18.9231 21.2009 19.0282 21.0607 19.2735 21.0607C19.8692 21.0607 20.4299 21.0607 21.2359 21.0257C22.0769 20.9906 22.953 20.9906 23.8992 20.9556C24.8453 20.9205 25.8616 20.9205 26.9479 20.8855C28.0342 20.8505 29.0855 20.8505 30.1368 20.8505C33.0103 20.8505 35.3932 21.2009 37.3556 21.9368C39.1077 22.5325 40.7197 23.5137 42.0513 24.8103C43.1727 25.9317 44.0487 27.2983 44.6094 28.8052C45.1351 30.277 45.4154 31.7838 45.4154 33.3607C45.4154 36.3744 44.7146 38.8624 43.3128 40.8248C41.9111 42.7872 39.9487 44.259 37.671 45.1C35.2881 45.9761 32.6599 46.2915 29.7863 46.2915C28.9453 46.2915 28.3846 46.2915 28.0342 46.2565C27.6838 46.2214 27.1932 46.2214 26.5274 46.2214V57.4701C26.5624 57.7154 26.3872 57.9257 26.1419 57.9607H19.3436C19.0633 57.9607 18.9231 57.8206 18.9231 57.5052ZM26.5624 27.824V39.5983C27.053 39.6334 27.5086 39.6684 27.9291 39.6684H29.7863C31.153 39.6684 32.5197 39.4582 33.8163 39.0377C34.9376 38.7223 35.9188 38.0565 36.6898 37.1804C37.4257 36.3043 37.7761 35.1129 37.7761 33.571C37.8111 32.4847 37.5308 31.3983 36.9701 30.4522C36.3744 29.5411 35.5334 28.8402 34.5171 28.4547C33.2205 27.9291 31.8188 27.7188 30.3821 27.7539C29.471 27.7539 28.665 27.7539 27.9992 27.7889C27.2983 27.7539 26.8077 27.7889 26.5624 27.824Z" fill="#31A8FF"/>
<path d="M67.2822 37.4607C66.2309 36.9 65.1096 36.5145 63.9181 36.2692C62.6215 35.9889 61.3249 35.8137 59.9933 35.8137C59.2925 35.7786 58.5566 35.8838 57.8908 36.059C57.4352 36.1641 57.0497 36.4094 56.8044 36.7598C56.6292 37.0402 56.5241 37.3906 56.5241 37.706C56.5241 38.0214 56.6643 38.3367 56.8745 38.6171C57.1899 39.0026 57.6104 39.3179 58.066 39.5632C58.8719 39.9838 59.713 40.3692 60.554 40.7197C62.4463 41.3504 64.2685 42.2265 65.9506 43.2778C67.107 44.0137 68.0532 44.9949 68.719 46.1863C69.2796 47.3077 69.56 48.5342 69.5249 49.7957C69.56 51.4427 69.0694 53.0897 68.1583 54.4564C67.1771 55.8581 65.8104 56.9444 64.2335 57.5752C62.5164 58.3111 60.4138 58.6966 57.8908 58.6966C56.2788 58.6966 54.7019 58.5564 53.1249 58.241C51.8984 58.0308 50.6719 57.6453 49.5506 57.1197C49.3053 56.9795 49.1301 56.7342 49.1651 56.4538V50.3564C49.1651 50.2513 49.2002 50.1111 49.3053 50.041C49.4104 49.9709 49.5155 50.006 49.6207 50.0761C50.9873 50.882 52.4241 51.4427 53.966 51.7932C55.2976 52.1436 56.6993 52.3188 58.101 52.3188C59.4326 52.3188 60.3788 52.1436 61.0096 51.8282C61.5702 51.5829 61.9557 50.9872 61.9557 50.3564C61.9557 49.8658 61.6754 49.4103 61.1147 48.9547C60.554 48.4991 59.3976 47.9735 57.6805 47.3077C55.8933 46.6769 54.2463 45.8359 52.7044 44.7846C51.6181 44.0137 50.707 42.9974 50.0412 41.806C49.4805 40.6846 49.2002 39.4581 49.2352 38.2316C49.2352 36.7248 49.6557 35.288 50.4266 33.9914C51.3027 32.5897 52.5993 31.4684 54.1061 30.7675C55.7531 29.9265 57.8207 29.541 60.3087 29.541C61.7455 29.541 63.2173 29.6461 64.654 29.8564C65.7053 29.9966 66.7215 30.2769 67.6677 30.6624C67.8079 30.6974 67.948 30.8376 68.0181 30.9778C68.0532 31.1179 68.0882 31.2581 68.0882 31.3983V37.1102C68.0882 37.2504 68.0181 37.3906 67.913 37.4607C67.5976 37.5308 67.4224 37.5308 67.2822 37.4607Z" fill="#31A8FF"/>
</svg>
