<svg width="59" height="83" viewBox="0 0 59 83" fill="none" xmlns="http://www.w3.org/2000/svg">
<path d="M58.3071 16.174L52.9952 75.6808L29.1178 82.3004L5.30633 75.6902L0 16.174H58.3071Z" fill="#264DE4"/>
<path d="M48.4475 71.8917L52.9869 21.0403H29.1536V77.2407L48.4475 71.8917Z" fill="#2965F1"/>
<path d="M12.1646 43.1141L12.8188 50.4135H29.1535V43.1141H12.1646Z" fill="#EBEBEB"/>
<path d="M29.1535 28.3398H10.8501L11.5136 35.6394H29.1535V28.3398Z" fill="#EBEBEB"/>
<path d="M29.1535 69.6658V62.0713L29.1215 62.08L20.9922 59.8848L20.4724 54.0631H13.1449L14.1676 65.5243L29.1199 69.6753L29.1535 69.6658Z" fill="#EBEBEB"/>
<path d="M13.7222 0H22.563V3.69709H17.4193V7.39418H22.563V11.0913H13.7222V0Z" fill="black"/>
<path d="M24.3313 0H33.1722V3.21486H28.0284V3.85783H33.1722V11.252H24.3313V7.87641H29.4751V7.23344H24.3313V0Z" fill="black"/>
<path d="M34.9403 0H43.7812V3.21486H38.6374V3.85783H43.7812V11.252H34.9403V7.87641H40.0841V7.23344H34.9403V0Z" fill="black"/>
<path d="M38.1167 50.4135L37.2694 59.8802L29.1282 62.0776V69.6717L44.0925 65.5243L44.2023 64.2912L45.9176 45.0742L46.0956 43.1141L47.4135 28.3398H29.1282V35.6394H39.4139L38.7496 43.1141H29.1282V50.4135H38.1167Z" fill="white"/>
</svg>
