<svg width="106" height="85" viewBox="0 0 106 85" fill="none" xmlns="http://www.w3.org/2000/svg">
<path d="M11.6284 10.9776C11.4296 5.26647 15.8793 0 21.8939 0H83.5254C89.5401 0 93.9898 5.26647 93.7909 10.9776C93.5999 16.4638 93.848 23.5704 95.6365 29.365C97.4307 35.1775 100.456 38.8514 105.412 39.3235V44.6765C100.456 45.1486 97.4307 48.8225 95.6365 54.635C93.848 60.4296 93.5999 67.5362 93.7909 73.0226C93.9898 78.7335 89.5401 84 83.5254 84H21.8939C15.8793 84 11.4296 78.7335 11.6286 73.0226C11.8195 67.5362 11.5714 60.4296 9.78271 54.635C7.98865 48.8225 4.95559 45.1486 0 44.6765V39.3235C4.95538 38.8514 7.98865 35.1775 9.78271 29.365C11.5714 23.5704 11.8195 16.4638 11.6284 10.9776Z" fill="url(#paint0_linear_67_68)"/>
<g filter="url(#filter0_d_67_68)">
<path d="M54.9918 64.3293C64.7294 64.3293 70.5973 59.5615 70.5973 51.6974C70.5973 45.7529 66.4105 41.4494 60.1936 40.7681V40.5204C64.7611 39.7774 68.3454 35.5358 68.3454 30.7989C68.3454 24.0494 63.0167 19.6528 54.8967 19.6528H36.6267V64.3293H54.9918ZM43.7317 25.3187H53.184C58.3224 25.3187 61.2404 27.6098 61.2404 31.7585C61.2404 36.186 57.8466 38.6628 51.6932 38.6628H43.7317V25.3187ZM43.7317 58.6636V43.9572H53.1204C59.8447 43.9572 63.3338 46.434 63.3338 51.264C63.3338 56.0938 59.94 58.6636 53.5327 58.6636H43.7317Z" fill="url(#paint1_linear_67_68)"/>
<path d="M54.9918 64.3293C64.7294 64.3293 70.5973 59.5615 70.5973 51.6974C70.5973 45.7529 66.4105 41.4494 60.1936 40.7681V40.5204C64.7611 39.7774 68.3454 35.5358 68.3454 30.7989C68.3454 24.0494 63.0167 19.6528 54.8967 19.6528H36.6267V64.3293H54.9918ZM43.7317 25.3187H53.184C58.3224 25.3187 61.2404 27.6098 61.2404 31.7585C61.2404 36.186 57.8466 38.6628 51.6932 38.6628H43.7317V25.3187ZM43.7317 58.6636V43.9572H53.1204C59.8447 43.9572 63.3338 46.434 63.3338 51.264C63.3338 56.0938 59.94 58.6636 53.5327 58.6636H43.7317Z" stroke="white"/>
</g>
<defs>
<filter id="filter0_d_67_68" x="20.1267" y="7.15283" width="66.9706" height="77.6765" filterUnits="userSpaceOnUse" color-interpolation-filters="sRGB">
<feFlood flood-opacity="0" result="BackgroundImageFix"/>
<feColorMatrix in="SourceAlpha" type="matrix" values="0 0 0 0 0 0 0 0 0 0 0 0 0 0 0 0 0 0 127 0" result="hardAlpha"/>
<feOffset dy="4"/>
<feGaussianBlur stdDeviation="8"/>
<feColorMatrix type="matrix" values="0 0 0 0 0 0 0 0 0 0 0 0 0 0 0 0 0 0 0.15 0"/>
<feBlend mode="normal" in2="BackgroundImageFix" result="effect1_dropShadow_67_68"/>
<feBlend mode="normal" in="SourceGraphic" in2="effect1_dropShadow_67_68" result="shape"/>
</filter>
<linearGradient id="paint0_linear_67_68" x1="15.6633" y1="2.22312" x2="107.775" y2="75.3416" gradientUnits="userSpaceOnUse">
<stop stop-color="#9013FE"/>
<stop offset="1" stop-color="#6610F2"/>
</linearGradient>
<linearGradient id="paint1_linear_67_68" x1="39.8399" y1="22.5934" x2="60.4294" y2="57.4147" gradientUnits="userSpaceOnUse">
<stop stop-color="white"/>
<stop offset="1" stop-color="#F1E5FC"/>
</linearGradient>
</defs>
</svg>
