<svg width="85" height="82" viewBox="0 0 85 82" fill="none" xmlns="http://www.w3.org/2000/svg">
<path d="M14.8932 0H69.2094C77.4444 0 84.1026 6.65812 84.1026 14.8932V67.1068C84.1026 75.3419 77.4444 82 69.2094 82H14.8932C6.65812 82 0 75.3419 0 67.1068V14.8932C0 6.65812 6.65812 0 14.8932 0Z" fill="#330000"/>
<path d="M40.7548 49.2H27.7189L25.0556 57.435C24.9856 57.7504 24.7052 57.9607 24.3898 57.9256H17.8018C17.4163 57.9256 17.3112 57.7154 17.4163 57.2949L28.7001 24.8103C28.8052 24.4598 28.9103 24.0744 29.0505 23.6538C29.1907 22.918 29.2608 22.147 29.2608 21.3761C29.2257 21.2009 29.3659 21.0256 29.5411 20.9906H38.6172C38.8975 20.9906 39.0377 21.0957 39.0727 21.2709L51.8633 57.365C51.9685 57.7504 51.8633 57.9256 51.5129 57.9256H44.189C43.9437 57.9607 43.6984 57.7855 43.6283 57.5402L40.7548 49.2ZM29.7514 42.0863H38.6522C38.442 41.3504 38.1616 40.4744 37.8462 39.5632C37.5309 38.6171 37.2155 37.6009 36.9001 36.5496C36.5497 35.4633 36.2343 34.412 35.8838 33.3256C35.5334 32.2393 35.218 31.2231 34.9377 30.2068C34.6573 29.2256 34.412 28.3145 34.1667 27.4735H34.0967C33.7813 28.9803 33.3958 30.4872 32.9052 31.994C32.3796 33.6761 31.8539 35.4282 31.2932 37.1803C30.8026 38.9675 30.277 40.6145 29.7514 42.0863Z" fill="#FF9A00"/>
<path d="M59.5025 26.9829C58.3461 27.0179 57.2247 26.5623 56.3837 25.7564C55.5777 24.8803 55.1572 23.7239 55.1922 22.5324C55.1572 21.341 55.6127 20.2196 56.4538 19.4136C57.2948 18.6076 58.4161 18.1871 59.5726 18.1871C60.9392 18.1871 61.9905 18.6076 62.7614 19.4136C63.5324 20.2547 63.9529 21.376 63.9179 22.5324C63.9529 23.7239 63.5324 24.8803 62.6914 25.7564C61.8854 26.5974 60.6939 27.0529 59.5025 26.9829ZM55.5777 57.4V30.417C55.5777 30.0666 55.7179 29.9265 56.0332 29.9265H62.9717C63.2871 29.9265 63.4273 30.1017 63.4273 30.417V57.4C63.4273 57.7854 63.2871 57.9606 62.9717 57.9606H56.1033C55.7529 57.9606 55.5777 57.7504 55.5777 57.4Z" fill="#FF9A00"/>
</svg>
