<svg width="81" height="81" viewBox="0 0 81 81" fill="none" xmlns="http://www.w3.org/2000/svg">
<path d="M5.72062 40.5C5.72062 54.2953 13.6434 66.1795 25.2113 71.7559L8.80369 26.4136C6.89766 30.8154 5.72062 35.5134 5.72062 40.5ZM63.9773 38.7382C63.9773 34.4857 62.3624 31.3976 61.0411 29.2005C59.2793 26.2643 57.6669 23.9178 57.6669 20.9841C57.6669 17.7567 60.1627 14.8205 63.5394 14.8205H63.9799C57.8137 9.09731 49.5973 5.72062 40.5 5.72062C34.7443 5.77159 29.0882 7.22881 24.0244 9.96542C18.9606 12.702 14.6426 16.635 11.4463 21.422H13.6485C17.3188 21.422 22.8926 20.9815 22.8926 20.9815C24.8012 20.8347 24.948 23.6216 23.1862 23.9178C23.1862 23.9178 21.2777 24.2114 19.2248 24.2114L31.8457 61.7752L39.4748 39.0293L34.0453 24.2089L30.375 23.9203C28.4664 23.7735 28.7601 20.9841 30.5218 20.9841C30.5218 20.9841 36.2424 21.4245 39.6191 21.4245C43.2894 21.4245 48.8633 20.9841 48.8633 20.9841C50.7718 20.8372 50.9186 23.6242 49.1569 23.9203C49.1569 23.9203 47.2483 24.2139 45.1955 24.2139L57.8138 61.6359L61.3575 50.0428C62.8256 45.2005 63.9976 41.8264 63.9976 38.7433L63.9773 38.7382ZM41.0873 43.5805L30.6686 73.8112C33.7492 74.6921 37.1233 75.2794 40.5 75.2794C44.6082 75.2794 48.4228 74.52 52.0931 73.3708C51.9463 73.224 51.9463 73.0772 51.7995 72.9304L41.0873 43.5805ZM71.0218 23.9203L71.3154 27.4641C71.3154 31.0078 70.7282 34.949 68.6753 39.9381L58.1099 70.6067C68.3817 64.5899 75.4237 53.4372 75.4237 40.5253C75.2768 34.5085 73.6619 28.9322 71.0193 23.9456L71.0218 23.9203ZM40.5 0C18.1946 0 0 18.1946 0 40.5C0 62.8054 18.1946 81 40.5 81C62.8054 81 81 62.8054 81 40.5C81 18.1946 62.8054 0 40.5 0ZM40.5 79.2383C19.2223 79.2383 1.90856 61.9245 1.90856 40.5C1.92463 30.2698 5.99566 20.4633 13.2295 13.2295C20.4633 5.99566 30.2698 1.92463 40.5 1.90856C50.7302 1.92463 60.5367 5.99566 67.7705 13.2295C75.0043 20.4633 79.0754 30.2698 79.0914 40.5C79.0914 61.9245 61.7777 79.2383 40.5 79.2383Z" fill="#00749A"/>
</svg>
