<svg width="641" height="376" viewBox="0 0 641 376" fill="none" xmlns="http://www.w3.org/2000/svg">
<rect width="641" height="376" fill="white"/>
<path d="M558.01 109.346C555.45 110.696 553.12 111.986 550.74 113.176C543.46 116.826 536.12 120.366 528.89 124.096C517.7 129.876 507.76 137.436 498.43 145.846C491.3 152.266 484.17 158.696 476.87 164.926C466.49 173.796 454.7 180.406 442.4 186.206C427.94 193.016 413.63 200.126 399.86 208.236C389.93 214.086 380.66 220.926 371.41 227.776C366.49 231.416 361.6 235.096 356.03 237.706C352.25 239.476 348.33 240.786 344.16 241.226C343.53 241.296 342.88 241.256 342.26 241.156C340.09 240.796 339.36 239.336 340.46 237.436C340.95 236.586 341.58 235.766 342.29 235.076C349.95 227.646 357.4 219.976 365.41 212.936C370.79 208.216 376.81 204.166 382.83 200.246C390.36 195.346 398.18 190.906 405.88 186.266C407.76 185.136 409.72 184.136 411.5 182.866C413.24 181.626 413.12 180.726 411.42 179.416C408.02 176.796 404.25 176.866 400.35 177.836C396.32 178.836 392.68 180.736 389 182.586C374.5 189.886 360.22 197.586 346.83 206.776C337.51 213.176 328.38 219.866 319.18 226.446C312.31 231.366 305.24 235.936 297.22 238.806C294.42 239.806 291.56 240.566 288.56 240.336C287.5 240.256 286.42 240.026 285.43 239.646C284.03 239.106 283.61 238.066 284.52 236.886C285.75 235.286 287.19 233.816 288.7 232.476C299.26 223.066 311.1 215.336 322.38 206.866C337.45 195.536 353.88 186.466 370.63 177.926C374.86 175.766 379.06 173.536 383.3 171.386C384.58 170.736 385.97 170.316 387.22 169.616C388.18 169.086 389.14 168.416 389.83 167.586C391.16 165.986 390.91 164.346 389.07 163.386C387.51 162.576 385.74 162.066 384.01 161.676C379.84 160.736 375.87 161.986 372.11 163.486C366.82 165.596 361.65 168.016 356.52 170.506C348.33 174.486 340.08 178.346 332.13 182.756C320.78 189.046 309.58 195.636 298.5 202.386C286.56 209.666 274.86 217.336 263 224.746C256.35 228.906 249.33 232.366 241.8 234.656C240.19 235.146 238.43 235.256 236.74 235.286C235.13 235.316 234.45 234.156 235.26 232.776C235.98 231.556 236.89 230.356 237.99 229.486C241.59 226.626 245.27 223.886 248.98 221.176C257.64 214.866 266.25 208.496 275.03 202.366C293.21 189.686 312.2 178.326 331.95 168.276C340.74 163.806 349.65 159.586 358.53 155.286C360.54 154.316 362.66 153.566 364.65 152.576C365.67 152.066 366.64 151.356 367.44 150.546C368.85 149.116 368.61 147.496 366.92 146.416C364.47 144.866 361.76 144.596 358.96 144.956C353.12 145.706 347.64 147.726 342.31 150.056C331.71 154.696 321.23 159.606 310.71 164.436C287.15 175.246 264.55 187.806 242.71 201.766C230.19 209.766 217.51 217.516 204.27 224.316C201.62 225.676 198.93 226.856 195.93 227.066C194.87 227.136 193.77 227.086 192.73 226.876C191.51 226.626 190.99 225.676 191.46 224.516C191.86 223.546 192.4 222.516 193.17 221.846C197.35 218.186 201.45 214.406 205.89 211.096C219.34 201.056 232.78 190.986 246.51 181.336C261.99 170.466 278.37 161.026 294.98 151.986C317.91 139.496 341.72 128.936 366.19 119.876C375.97 116.256 386.07 113.706 396.32 111.846C403.66 110.516 411.01 109.246 418.41 108.286C426.01 107.306 433.65 106.606 441.3 106.026C449.59 105.406 457.89 104.976 466.2 104.646C469.75 104.506 473.31 104.986 476.86 104.966C481.17 104.936 485.5 104.836 489.79 104.476C494.96 104.036 500.12 103.446 505.24 102.636C510.35 101.826 515.41 100.666 520.5 99.6957C521.14 99.5757 521.87 99.4757 522.48 99.6357C533.99 102.716 545.5 105.836 557 108.946C557.25 109.016 557.5 109.136 558.02 109.326L558.01 109.346Z" fill="#ACAA90"/>
<path d="M75 83.6057C168.39 71.3457 258.15 83.1357 343.51 124.106C343.51 124.216 343.51 124.326 343.52 124.436C341.24 125.296 338.95 126.136 336.68 127.026C332.22 128.766 327.77 130.526 323.33 132.306C322.57 132.606 321.96 132.636 321.2 132.246C298.19 120.566 274.3 111.076 249.62 103.596C233.77 98.7957 217.73 94.7357 201.43 91.8157C191.11 89.9657 180.75 88.2957 170.36 86.8457C163.05 85.8257 155.68 85.2457 148.32 84.5857C130.58 82.9757 112.79 82.6657 94.99 83.0157C89.35 83.1257 83.72 83.4357 78.09 83.6857C77.06 83.7257 76.04 83.8957 75.01 84.0057C75.01 83.8657 75.01 83.7357 75.01 83.5957L75 83.6057Z" fill="#ACAA90"/>
<path d="M309.18 138.356C306.45 139.626 303.88 140.796 301.33 142.016C298.38 143.426 295.43 144.846 292.51 146.326C291.75 146.716 291.2 146.696 290.45 146.256C277.01 138.206 263.1 131.026 248.82 124.606C228.74 115.576 208.08 108.156 186.9 102.166C170.93 97.6459 154.77 93.9259 138.41 91.1859C129.05 89.6159 119.64 88.2859 110.22 87.1259C102.93 86.2259 95.5901 85.7059 88.2701 85.1059C83.8901 84.7459 79.5001 84.5359 75.1201 84.2159C115.83 82.8759 156.08 86.5059 195.83 95.4659C235.56 104.426 273.38 118.426 309.17 138.366L309.18 138.356Z" fill="#ACAA90"/>
<path d="M75.2099 84.6658C78.5699 85.0858 81.9499 85.4358 85.2899 85.9558C92.4199 87.0758 99.5499 88.2158 106.65 89.4858C121.22 92.0858 135.59 95.5458 149.81 99.6458C175.6 107.076 200.51 116.726 224.43 128.916C240.54 137.126 256.01 146.416 270.75 156.906C270.97 157.066 271.19 157.236 271.51 157.476C268.93 158.986 266.42 160.436 263.93 161.906C261.9 163.106 259.87 164.306 257.89 165.576C257.27 165.966 256.89 165.916 256.33 165.476C240.09 152.626 222.83 141.316 204.7 131.326C180.08 117.776 154.32 106.896 127.57 98.3358C112.06 93.3658 96.3399 89.2558 80.4099 85.8958C78.6599 85.5258 76.8999 85.1858 75.1499 84.8258C75.1699 84.7658 75.1899 84.7158 75.2099 84.6558V84.6658Z" fill="#ACAA90"/>
<path d="M287.66 95.7658C292.16 94.8258 296.31 93.8658 300.51 93.1158C307.97 91.7858 315.42 90.3658 322.93 89.3758C331.12 88.2958 339.35 87.3158 347.59 86.9258C358.13 86.4258 368.7 86.3058 379.25 86.4658C389.76 86.6258 400.26 87.2758 410.76 87.7958C417.26 88.1258 423.77 88.5658 430.26 89.0558C437.35 89.5958 444.43 90.2458 451.51 90.8958C457.63 91.4458 463.76 92.0058 469.88 92.6558C476.71 93.3758 483.53 94.1658 490.35 94.9658C496.41 95.6758 502.47 96.4458 508.53 97.1958C508.87 97.2358 509.21 97.3258 509.55 97.6258C504.98 98.2458 500.41 98.9358 495.82 99.4558C491.22 99.9758 486.61 100.496 481.99 100.716C477.85 100.906 473.68 100.636 469.53 100.646C464.62 100.666 459.7 100.696 454.79 100.866C450.68 101.006 446.57 101.526 442.47 101.556C440.06 101.576 437.65 100.946 435.24 100.626C429.47 99.8458 423.7 99.0558 417.92 98.3158C412.97 97.6758 408.02 97.0658 403.06 96.5158C397.9 95.9458 392.74 95.4258 387.57 94.9558C382.16 94.4658 376.75 93.8758 371.33 93.6558C362.27 93.2858 353.19 92.9858 344.12 93.0058C338.34 93.0158 332.54 93.5158 326.77 94.0458C319.97 94.6658 313.2 95.5158 306.42 96.3358C303.02 96.7458 299.63 97.3258 296.23 97.8058C295.84 97.8658 295.41 97.8858 295.04 97.7958C292.69 97.1758 290.36 96.5158 287.68 95.7858L287.66 95.7658Z" fill="#ACAA90"/>
<path d="M75.6201 85.4458C137.71 103.026 193.7 131.596 240.7 176.706C236.36 179.816 232.17 182.816 227.87 185.906C207.28 162.896 183.76 143.266 157.83 126.486C131.95 109.736 104.43 96.2858 75.6201 85.4458Z" fill="#ACAA90"/>
<path d="M416.42 103.846C408.73 105.126 400.75 106.496 392.75 107.726C391.1 107.976 389.35 107.786 387.67 107.596C380.29 106.766 372.93 105.866 365.56 104.996C350.51 103.206 335.41 103.256 320.29 103.646C317.69 103.716 315.1 103.896 312.5 104.016C312.18 104.026 311.84 104.066 311.55 103.966C308.63 103.026 305.72 102.056 302.81 100.926C304.53 100.716 306.24 100.476 307.96 100.316C313.09 99.8357 318.21 99.3257 323.35 98.9657C328.33 98.6157 333.32 98.2957 338.32 98.1857C344.39 98.0457 350.48 97.9557 356.55 98.1857C363.49 98.4457 370.43 98.9957 377.36 99.5557C383.37 100.036 389.37 100.646 395.36 101.306C401.67 102.006 407.96 102.826 414.26 103.596C415.09 103.696 415.92 103.796 416.42 103.856V103.846Z" fill="#ACAA90"/>
<path d="M212.95 275.996C212.16 278.276 211.36 280.566 210.57 282.846C209.12 287.026 207.68 291.216 206.23 295.396C206.02 296.016 205.79 296.766 204.97 296.496C204.53 296.356 204.02 295.816 203.89 295.356C201.42 286.696 198.99 278.026 196.56 269.356C196.22 268.126 196.44 267.826 197.71 267.836C200.61 267.856 200.2 267.416 200.95 270.276C202.3 275.396 203.64 280.526 204.98 285.656C205.09 286.076 205.23 286.486 205.45 287.246C205.9 285.976 206.25 285.026 206.58 284.066C208.35 278.906 210.11 273.736 211.89 268.566C212.09 267.976 212.21 267.356 213.1 267.336C214.05 267.306 214.19 267.956 214.41 268.596C216.35 274.206 218.3 279.816 220.25 285.426C220.42 285.906 220.62 286.376 220.95 287.216C221.18 286.476 221.33 286.056 221.44 285.636C222.87 280.116 224.32 274.606 225.7 269.086C225.94 268.116 226.38 267.806 227.35 267.826C230.23 267.866 230.2 267.826 229.44 270.516C227.14 278.686 224.86 286.866 222.57 295.036C222.39 295.686 222.4 296.506 221.37 296.556C220.35 296.606 220.26 295.836 220.02 295.176C217.87 289.086 215.72 282.996 213.57 276.906C213.47 276.606 213.34 276.326 213.23 276.026C213.14 276.016 213.04 276.006 212.95 275.996Z" fill="#ACAA90"/>
<path d="M287.94 281.876C287.94 277.676 287.97 273.486 287.92 269.296C287.91 268.216 288.24 267.786 289.36 267.826C293.03 267.946 296.72 267.756 300.36 268.126C306.08 268.706 311.03 274.136 311.92 279.816C313.16 287.796 307.01 296.256 297.36 296.086C294.68 296.036 292.01 296.046 289.33 296.086C288.29 296.106 287.92 295.746 287.93 294.696C287.97 290.426 287.95 286.146 287.95 281.876H287.94ZM292.03 271.786V292.236C294.42 292.236 296.76 292.506 299.02 292.186C304.53 291.386 307.85 287.126 307.67 281.486C307.51 276.476 304.45 272.646 299.52 271.856C297.12 271.466 294.61 271.786 292.03 271.786Z" fill="#ACAA90"/>
<path d="M425.22 281.886C425.22 277.696 425.25 273.496 425.2 269.306C425.18 268.126 425.61 267.786 426.74 267.806C429.62 267.866 432.49 267.806 435.37 267.836C443.13 267.886 449.52 274.436 449.37 282.186C449.22 289.826 442.91 296.046 435.26 296.066C432.5 296.066 429.75 296.066 426.99 296.066C425.817 296.066 425.227 295.496 425.22 294.356C425.22 290.206 425.22 286.046 425.22 281.896V281.886ZM429.3 292.306C431.23 292.306 433.1 292.306 434.96 292.306C439.89 292.276 443.79 288.996 444.81 284.006C445.79 279.216 443.41 274.436 439.11 272.476C435.94 271.036 432.62 271.776 429.3 271.556V292.306Z" fill="#ACAA90"/>
<path d="M514.42 275.536C514.42 276.296 514.42 276.716 514.42 277.136C514.42 282.896 514.42 288.656 514.42 294.416C514.42 296.006 514.37 296.056 512.81 296.066C511.217 296.072 510.42 295.299 510.42 293.746C510.42 285.506 510.41 277.266 510.44 269.036C510.44 268.486 510.66 267.676 511.05 267.446C511.73 267.046 512.31 267.566 512.83 268.176C518.2 274.466 523.61 280.736 529 287.016C529.18 287.226 529.3 287.476 529.45 287.716C529.58 287.666 529.71 287.606 529.84 287.556C529.84 287.146 529.84 286.746 529.84 286.336C529.84 280.696 529.84 275.056 529.84 269.416C529.84 267.876 529.87 267.846 531.36 267.836C533.013 267.836 533.84 268.656 533.84 270.296C533.84 278.536 533.85 286.776 533.81 295.006C533.81 295.506 533.54 296.256 533.17 296.456C532.56 296.786 531.97 296.436 531.46 295.826C526.02 289.276 520.54 282.766 515.06 276.236C514.93 276.086 514.79 275.946 514.4 275.536H514.42Z" fill="#ACAA90"/>
<path d="M486.65 287.466C486.65 283.076 486.65 278.676 486.65 274.286C486.65 272.566 486.68 270.846 486.64 269.126C486.62 268.236 486.89 267.806 487.86 267.816C490.8 267.866 490.66 267.506 490.66 270.576C490.64 278.736 490.66 286.886 490.63 295.046C490.63 295.526 490.42 296.236 490.07 296.436C489.46 296.786 488.85 296.506 488.34 295.886C482.94 289.406 477.51 282.956 472.09 276.506C471.89 276.266 471.67 276.046 471.22 275.546C471.22 276.256 471.22 276.666 471.22 277.076C471.22 282.836 471.22 288.586 471.22 294.346C471.22 296.056 471.2 296.066 469.45 296.066C469.17 296.066 468.89 296.046 468.61 296.066C467.57 296.166 467.21 295.696 467.22 294.666C467.25 286.026 467.22 277.396 467.26 268.756C467.26 268.296 467.65 267.456 467.88 267.446C468.42 267.426 469.15 267.646 469.49 268.046C474.89 274.256 480.25 280.506 485.62 286.746C485.87 287.036 486.14 287.306 486.4 287.586C486.49 287.546 486.57 287.506 486.66 287.456L486.65 287.466Z" fill="#ACAA90"/>
<path d="M233.22 282.016C233.18 273.956 239.61 267.376 247.54 267.356C255.58 267.326 262.09 273.826 262.12 281.896C262.15 290.016 255.74 296.496 247.66 296.536C239.68 296.576 233.26 290.116 233.22 282.016ZM247.68 271.306C241.97 271.256 237.21 276.006 237.15 281.816C237.09 287.676 241.7 292.516 247.41 292.576C253.23 292.626 258.12 288.036 258.18 282.456C258.25 276.186 253.7 271.356 247.68 271.306Z" fill="#ACAA90"/>
<path d="M123.3 281.986C123.3 273.866 129.74 267.346 137.77 267.356C145.77 267.366 152.16 273.876 152.19 282.056C152.22 290.036 145.71 296.536 137.7 296.536C129.7 296.536 123.31 290.066 123.3 281.986ZM137.68 292.596C143.43 292.616 148.23 287.936 148.26 282.276C148.29 276.166 143.69 271.346 137.81 271.316C131.96 271.286 127.24 276.066 127.25 282.026C127.25 287.876 131.9 292.576 137.68 292.596Z" fill="#ACAA90"/>
<path d="M560.35 286.466C559.04 286.466 557.89 286.436 556.74 286.466C555.86 286.496 555.55 286.116 555.54 285.246C555.5 282.706 555.48 282.706 558.06 282.696C559.74 282.696 561.42 282.726 563.1 282.696C563.98 282.676 564.33 283.056 564.33 283.906C564.33 286.866 564.37 289.826 564.31 292.786C564.31 293.216 564.01 293.856 563.65 294.046C558.17 296.976 551.02 297.856 545.43 293.626C540.81 290.126 538.7 284.006 540.2 278.216C541.66 272.556 546.28 268.416 552.02 267.536C556.27 266.886 559.98 268.066 563.34 270.636C564.25 271.326 564.22 271.866 563.45 272.656C561.82 274.346 561.86 274.356 559.9 273.076C556.68 270.966 553.26 270.526 549.8 272.336C546.27 274.186 544.37 277.236 544.17 281.206C543.88 287.016 547.41 291.486 552.96 292.406C555.31 292.796 557.57 292.286 559.72 291.326C560 291.206 560.29 290.756 560.3 290.446C560.37 289.176 560.33 287.896 560.33 286.436L560.35 286.466Z" fill="#ACAA90"/>
<path d="M99.8404 281.906C100.02 286.136 101.76 289.416 105.47 291.366C109.13 293.296 112.71 292.846 116.1 290.506C116.6 290.156 117.43 289.586 117.71 289.766C118.53 290.266 119.24 291.036 119.81 291.836C119.95 292.026 119.5 292.846 119.13 293.156C112.7 298.626 102.92 297.296 98.0604 290.316C93.9404 284.406 94.8004 276.306 100.08 271.286C105.22 266.396 113.26 266.016 118.86 270.396C120.24 271.476 120.25 271.626 119.05 272.896C118.97 272.986 118.89 273.076 118.8 273.156C117.39 274.546 117.72 274.436 116.23 273.376C112.92 271.026 109.31 270.456 105.61 272.326C101.71 274.296 99.9904 277.706 99.8304 281.906H99.8404Z" fill="#ACAA90"/>
<path d="M364.19 273.566C364.19 273.986 364.19 274.406 364.19 274.826C364.19 281.386 364.19 287.946 364.19 294.496C364.19 295.956 363.45 296.526 362.07 295.986C361.74 295.856 361.42 295.206 361.41 294.786C361.35 292.386 361.38 289.986 361.38 287.586C361.38 281.346 361.37 275.106 361.41 268.876C361.41 268.376 361.67 267.646 362.05 267.416C362.63 267.076 363.19 267.466 363.64 268.046C369.21 275.056 374.8 282.046 380.39 289.036C380.66 289.376 380.94 289.706 381.45 290.306C381.48 289.586 381.52 289.176 381.52 288.776C381.52 282.296 381.54 275.816 381.51 269.346C381.51 268.356 381.64 267.776 382.86 267.786C384.04 267.796 384.36 268.236 384.36 269.356C384.33 277.876 384.36 286.396 384.32 294.906C384.32 295.426 384.13 296.196 383.76 296.426C382.99 296.896 382.59 296.106 382.17 295.586C376.51 288.496 370.85 281.406 365.18 274.316C364.96 274.036 364.72 273.776 364.49 273.506C364.39 273.526 364.29 273.546 364.18 273.566H364.19Z" fill="#ACAA90"/>
<path d="M374.72 112.086C370.03 113.556 365.7 115.076 361.28 116.216C359.88 116.576 358.22 115.976 356.69 115.766C349.31 114.756 341.92 113.716 334.54 112.686C334.19 112.636 333.83 112.556 333.51 112.406C329.66 110.666 325.81 108.916 321.97 107.166C321.88 107.126 321.81 107.026 321.65 106.896C339.39 107.516 356.93 109.206 374.72 112.076V112.086Z" fill="#ACAA90"/>
<path d="M184.64 296.566C181.39 296.436 178.62 295.586 176.19 293.706C175.42 293.106 175.16 292.536 175.84 291.726C175.94 291.606 176.01 291.456 176.09 291.316C177.11 289.666 177.12 289.686 178.69 290.746C180.84 292.186 183.06 293.436 185.82 292.806C187.38 292.446 188.54 291.596 188.95 290.016C189.36 288.486 188.91 287.076 187.65 286.166C186.31 285.186 184.81 284.426 183.35 283.606C181.82 282.746 180.18 282.076 178.75 281.076C176.11 279.226 175.1 276.546 175.76 273.416C176.47 270.016 178.83 268.236 182.14 267.586C185.44 266.946 188.46 267.756 191.32 269.396C192.23 269.916 192.51 270.516 191.83 271.406C191.59 271.726 191.38 272.066 191.18 272.406C190.74 273.136 190.21 273.176 189.46 272.816C188.14 272.176 186.81 271.486 185.4 271.126C184.45 270.876 183.32 270.956 182.35 271.216C179.41 272.016 178.61 275.476 180.9 277.546C181.86 278.406 183.09 278.976 184.24 279.596C186.13 280.616 188.15 281.416 189.95 282.586C192.82 284.446 193.99 287.226 193.21 290.566C192.43 293.886 189.95 295.546 186.79 296.286C186.02 296.466 185.21 296.496 184.63 296.576L184.64 296.566Z" fill="#ACAA90"/>
<path d="M395.66 283.106V293.496C396.12 293.496 396.54 293.496 396.96 293.496C400.84 293.496 404.72 293.516 408.6 293.496C409.46 293.496 409.95 293.656 409.94 294.676C409.94 295.666 409.65 296.116 408.57 296.106C403.73 296.066 398.89 296.056 394.06 296.106C392.88 296.116 392.56 295.676 392.57 294.546C392.61 286.186 392.59 277.836 392.59 269.476C392.59 267.896 392.64 267.856 394.21 267.856C398.97 267.856 403.73 267.876 408.48 267.836C409.5 267.836 409.96 268.156 409.95 269.176C409.95 270.156 409.49 270.456 408.53 270.446C404.3 270.406 400.06 270.426 395.72 270.426V280.506C396.12 280.526 396.55 280.556 396.97 280.556C400.17 280.556 403.37 280.586 406.57 280.546C407.53 280.536 407.95 280.816 407.93 281.836C407.92 282.816 407.57 283.156 406.58 283.146C402.99 283.096 399.39 283.126 395.66 283.126V283.106Z" fill="#ACAA90"/>
<path d="M161.64 271.546C159.64 271.546 157.81 271.546 155.98 271.546C154.33 271.546 154.26 271.476 154.26 269.886C154.26 269.566 154.28 269.246 154.26 268.926C154.21 268.166 154.57 267.826 155.32 267.826C160.88 267.826 166.44 267.816 172 267.866C172.34 267.866 172.68 268.426 172.99 268.756C173.07 268.846 173.01 269.066 173.01 269.226C173.05 270.766 172.293 271.536 170.74 271.536C169.11 271.536 167.48 271.536 165.7 271.536C165.7 272.116 165.7 272.586 165.7 273.046C165.7 280.206 165.68 287.366 165.72 294.526C165.72 295.656 165.38 296.096 164.21 296.076C161.4 296.016 161.66 296.316 161.66 293.596C161.66 286.796 161.66 279.996 161.66 273.196C161.66 272.686 161.66 272.176 161.66 271.546H161.64Z" fill="#ACAA90"/>
<path d="M330.15 270.396V281.736C330.87 281.736 331.53 281.736 332.2 281.736C335.2 281.736 338.2 281.776 341.19 281.726C342.19 281.706 342.4 282.166 342.4 283.036C342.4 283.936 342.1 284.336 341.14 284.326C337.98 284.286 334.82 284.316 331.67 284.316C331.2 284.316 330.72 284.316 330.09 284.316C330.09 284.836 330.09 285.256 330.09 285.686C330.09 288.726 330.06 291.766 330.1 294.796C330.12 295.936 329.52 296.106 328.59 296.096C327.7 296.086 327.04 296.026 327.04 294.846C327.07 286.256 327.06 277.656 327.04 269.066C327.04 268.206 327.37 267.836 328.24 267.836C333.24 267.856 338.23 267.856 343.23 267.836C344.25 267.836 344.41 268.426 344.41 269.236C344.41 270.056 344.09 270.446 343.18 270.436C339.3 270.396 335.43 270.416 331.55 270.416C331.12 270.416 330.68 270.416 330.13 270.416L330.15 270.396Z" fill="#ACAA90"/>
<path d="M272.01 292.416C275.48 292.416 278.79 292.416 282.1 292.416C283.62 292.416 283.71 292.496 283.71 294.176C283.71 296.006 283.67 296.066 282.11 296.066C277.87 296.066 273.64 296.036 269.4 296.086C268.3 296.096 267.93 295.766 267.94 294.656C267.97 286.186 267.97 277.706 267.94 269.236C267.94 268.116 268.33 267.786 269.41 267.806C272.21 267.856 272.02 267.626 272.02 270.396C272.02 277.226 272.02 284.066 272.02 290.896C272.02 291.336 272.02 291.766 272.02 292.406L272.01 292.416Z" fill="#ACAA90"/>
<path d="M455.4 281.896C455.4 277.706 455.43 273.506 455.38 269.316C455.37 268.176 455.72 267.776 456.89 267.806C459.45 267.866 459.45 267.806 459.45 270.316C459.45 278.346 459.45 286.366 459.45 294.396C459.45 295.996 459.39 296.056 457.87 296.066C455.19 296.066 455.41 296.316 455.41 293.636C455.41 289.726 455.41 285.806 455.41 281.896H455.4Z" fill="#ACAA90"/>
<path d="M498.6 281.826C498.6 277.636 498.63 273.436 498.58 269.246C498.57 268.136 498.95 267.786 500.05 267.806C502.89 267.856 502.65 267.636 502.65 270.386C502.65 278.416 502.65 286.436 502.65 294.466C502.65 296.016 502.6 296.056 500.99 296.056C498.33 296.056 498.6 296.216 498.6 293.676C498.6 289.726 498.6 285.766 498.6 281.816V281.826Z" fill="#ACAA90"/>
<path d="M352.89 281.986C352.89 286.186 352.86 290.376 352.91 294.576C352.92 295.736 352.52 296.106 351.37 296.096C350.23 296.096 349.83 295.716 349.84 294.556C349.88 286.126 349.88 277.696 349.84 269.266C349.84 268.036 350.38 267.816 351.44 267.806C352.54 267.806 352.91 268.186 352.9 269.276C352.86 273.506 352.88 277.746 352.88 281.986H352.89Z" fill="#ACAA90"/>
</svg>
