<svg width="74" height="73" viewBox="0 0 74 73" fill="none" xmlns="http://www.w3.org/2000/svg">
<g filter="url(#filter0_d_432_11)">
<ellipse cx="36.9279" cy="36.5" rx="21.6937" ry="21.5" fill="url(#paint0_linear_432_11)"/>
</g>
<path d="M29.1368 37.6188C28.5189 37.6188 28.018 37.1179 28.018 36.5V36.5C28.018 35.8821 28.5189 35.3812 29.1368 35.3812H42.4124L37.4238 30.2462C37.0519 29.8634 37.0558 29.2531 37.4325 28.8751V28.8751C37.818 28.4882 38.4456 28.4922 38.8262 28.8839L44.4871 34.7109C45.4551 35.7073 45.4551 37.2928 44.4871 38.2891L38.8262 44.1162C38.4456 44.5079 37.818 44.5119 37.4325 44.125V44.125C37.0558 43.7469 37.0519 43.1366 37.4238 42.7538L42.4124 37.6188H29.1368Z" fill="white"/>
<defs>
<filter id="filter0_d_432_11" x="0.342347" y="0.108109" width="73.1712" height="72.7838" filterUnits="userSpaceOnUse" color-interpolation-filters="sRGB">
<feFlood flood-opacity="0" result="BackgroundImageFix"/>
<feColorMatrix in="SourceAlpha" type="matrix" values="0 0 0 0 0 0 0 0 0 0 0 0 0 0 0 0 0 0 127 0" result="hardAlpha"/>
<feMorphology radius="4.27928" operator="dilate" in="SourceAlpha" result="effect1_dropShadow_432_11"/>
<feOffset/>
<feGaussianBlur stdDeviation="5.30631"/>
<feComposite in2="hardAlpha" operator="out"/>
<feColorMatrix type="matrix" values="0 0 0 0 0.176471 0 0 0 0 0.341176 0 0 0 0 0.756863 0 0 0 0.5 0"/>
<feBlend mode="normal" in2="BackgroundImageFix" result="effect1_dropShadow_432_11"/>
<feBlend mode="normal" in="SourceGraphic" in2="effect1_dropShadow_432_11" result="shape"/>
</filter>
<linearGradient id="paint0_linear_432_11" x1="15.2342" y1="33.6711" x2="58.6216" y2="33.6711" gradientUnits="userSpaceOnUse">
<stop stop-color="#3359B9"/>
<stop offset="1" stop-color="#2648A0"/>
</linearGradient>
</defs>
</svg>
