<svg width="126" height="125" viewBox="0 0 126 125" fill="none" xmlns="http://www.w3.org/2000/svg">
<g filter="url(#filter0_d_432_10)">
<ellipse cx="62.9279" cy="62.5" rx="47.9279" ry="47.5" fill="url(#paint0_linear_432_10)"/>
</g>
<path d="M45.7149 64.9717C44.3498 64.9717 43.2432 63.8651 43.2432 62.5V62.5C43.2432 61.1349 44.3499 60.0283 45.7149 60.0283H75.0448L64.0235 48.6835C63.2019 47.8378 63.2104 46.4894 64.0427 45.6541V45.6541C64.8943 44.7994 66.281 44.8082 67.1217 45.6736L81.7303 60.7109C82.6983 61.7072 82.6983 63.2927 81.7304 64.2891L67.1217 79.3264C66.281 80.1918 64.8943 80.2006 64.0427 79.3459V79.3459C63.2104 78.5106 63.2019 77.1623 64.0235 76.3165L75.0448 64.9717H45.7149Z" fill="white"/>
<defs>
<filter id="filter0_d_432_10" x="0.108109" y="0.108109" width="125.64" height="124.784" filterUnits="userSpaceOnUse" color-interpolation-filters="sRGB">
<feFlood flood-opacity="0" result="BackgroundImageFix"/>
<feColorMatrix in="SourceAlpha" type="matrix" values="0 0 0 0 0 0 0 0 0 0 0 0 0 0 0 0 0 0 127 0" result="hardAlpha"/>
<feMorphology radius="4.27928" operator="dilate" in="SourceAlpha" result="effect1_dropShadow_432_10"/>
<feOffset/>
<feGaussianBlur stdDeviation="5.30631"/>
<feComposite in2="hardAlpha" operator="out"/>
<feColorMatrix type="matrix" values="0 0 0 0 0.176471 0 0 0 0 0.341176 0 0 0 0 0.756863 0 0 0 0.5 0"/>
<feBlend mode="normal" in2="BackgroundImageFix" result="effect1_dropShadow_432_10"/>
<feBlend mode="normal" in="SourceGraphic" in2="effect1_dropShadow_432_10" result="shape"/>
</filter>
<linearGradient id="paint0_linear_432_10" x1="15" y1="56.25" x2="110.856" y2="56.25" gradientUnits="userSpaceOnUse">
<stop stop-color="#3359B9"/>
<stop offset="1" stop-color="#2648A0"/>
</linearGradient>
</defs>
</svg>
