<svg width="641" height="376" viewBox="0 0 641 376" fill="none" xmlns="http://www.w3.org/2000/svg">
<g clip-path="url(#clip0_122_14)">
<path d="M641 0H0V376H641V0Z" fill="white"/>
<path d="M65.2804 181.893C65.2804 191.053 69.8589 200.527 80.007 200.527C90.1552 200.527 94.7336 191.053 94.7336 181.893C94.7336 172.732 90.1552 163.259 80.007 163.259C69.8589 163.259 65.2804 172.732 65.2804 181.893ZM80.007 159.54C92.9988 159.54 99.1294 170.188 99.012 181.893C98.8816 195.137 92.4509 204.246 80.007 204.246C67.5631 204.246 61.1325 195.15 61.002 181.893C60.8716 170.188 67.0022 159.54 80.007 159.54Z" fill="#201751"/>
<path d="M65.2804 181.893C65.2804 191.053 69.8589 200.527 80.007 200.527C90.1552 200.527 94.7336 191.053 94.7336 181.893C94.7336 172.732 90.1552 163.259 80.007 163.259C69.8589 163.259 65.2804 172.732 65.2804 181.893ZM80.007 159.54C92.9988 159.54 99.1294 170.188 99.012 181.893C98.8816 195.137 92.4509 204.246 80.007 204.246C67.5631 204.246 61.1325 195.15 61.002 181.893C60.8716 170.188 67.0022 159.54 80.007 159.54Z" stroke="#201751" stroke-width="0.491226"/>
<path d="M118.865 180.784L104.387 160.284H109.396L121.526 177.743L133.788 160.284H138.549L124.005 180.784L139.723 203.502H134.531L121.344 183.811L107.674 203.502H102.782L118.865 180.784Z" fill="#201751"/>
<path d="M118.865 180.784L104.387 160.284H109.396L121.526 177.743L133.788 160.284H138.549L124.005 180.784L139.723 203.502H134.531L121.344 183.811L107.674 203.502H102.782L118.865 180.784Z" stroke="#201751" stroke-width="0.491226"/>
<path d="M144.926 160.284H165.47V164.003H149.192V179.413H164.727V183.132H149.192V203.502H144.926V160.284Z" fill="#201751"/>
<path d="M144.926 160.284H165.47V164.003H149.192V179.413H164.727V183.132H149.192V203.502H144.926V160.284Z" stroke="#201751" stroke-width="0.491226"/>
<path d="M175.241 181.893C175.241 191.053 179.819 200.527 189.967 200.527C200.115 200.527 204.694 191.053 204.694 181.893C204.694 172.732 200.115 163.259 189.967 163.259C179.819 163.259 175.241 172.732 175.241 181.893ZM189.967 159.54C202.959 159.54 209.089 170.188 208.959 181.893C208.842 195.137 202.398 204.246 189.967 204.246C177.536 204.246 171.093 195.15 170.975 181.893C170.845 170.188 176.975 159.54 189.967 159.54Z" fill="#201751"/>
<path d="M175.241 181.893C175.241 191.053 179.819 200.527 189.967 200.527C200.115 200.527 204.694 191.053 204.694 181.893C204.694 172.732 200.115 163.259 189.967 163.259C179.819 163.259 175.241 172.732 175.241 181.893ZM189.967 159.54C202.959 159.54 209.089 170.188 208.959 181.893C208.842 195.137 202.398 204.246 189.967 204.246C177.536 204.246 171.093 195.15 170.975 181.893C170.845 170.188 176.975 159.54 189.967 159.54Z" stroke="#201751" stroke-width="0.491226"/>
<path d="M222.029 179.413H226.555C231.564 179.413 237.317 177.495 237.317 171.493C237.317 164.433 232.308 164.003 226.425 164.003H222.029V179.413ZM217.764 160.284H228.903C236.586 160.284 241.595 163.572 241.595 171.493C241.595 177.065 237.33 180.784 232.008 181.462V181.593C235.477 182.023 236.208 183.889 237.577 186.799L244.947 203.515H240.238L233.99 188.9C231.512 183.328 229.66 183.145 225.577 183.145H222.042V203.515H217.777V160.297L217.764 160.284Z" fill="#201751"/>
<path d="M222.029 179.413H226.555C231.564 179.413 237.317 177.495 237.317 171.493C237.317 164.433 232.308 164.003 226.425 164.003H222.029V179.413ZM217.764 160.284H228.903C236.586 160.284 241.595 163.572 241.595 171.493C241.595 177.065 237.33 180.784 232.008 181.462V181.593C235.477 182.023 236.208 183.889 237.577 186.799L244.947 203.515H240.238L233.99 188.9C231.512 183.328 229.66 183.145 225.577 183.145H222.042V203.515H217.777V160.297L217.764 160.284Z" stroke="#201751" stroke-width="0.491226"/>
<path d="M255.943 199.783H259.465C271.713 199.783 279.696 194.824 279.696 181.58C279.696 168.335 271.844 164.003 262.178 164.003H255.93V199.783H255.943ZM251.678 160.284H262.387C277.857 160.284 283.988 169.196 283.988 181.828C283.988 197.486 273.526 203.502 259.23 203.502H251.678V160.284Z" fill="#201751"/>
<path d="M255.943 199.783H259.465C271.713 199.783 279.696 194.824 279.696 181.58C279.696 168.335 271.844 164.003 262.178 164.003H255.93V199.783H255.943ZM251.678 160.284H262.387C277.857 160.284 283.988 169.196 283.988 181.828C283.988 197.486 273.526 203.502 259.23 203.502H251.678V160.284Z" stroke="#201751" stroke-width="0.491226"/>
<path d="M293.862 176.595V175.603H300.11C302.223 172.25 304.375 168.857 306.606 165.451C308.823 162.045 311.145 158.966 313.584 156.226C316.023 153.485 318.554 151.267 321.215 149.558C323.863 147.861 326.654 147 329.576 147C331.311 147 332.719 147.365 333.789 148.096C334.872 148.827 335.406 149.949 335.406 151.463C335.406 152.768 335.002 153.838 334.193 154.673C333.385 155.508 332.354 155.991 331.115 156.095C331.324 155.338 331.493 154.621 331.624 153.942C331.754 153.263 331.819 152.467 331.819 151.554C331.819 150.471 331.559 149.61 331.05 148.957C330.528 148.305 329.654 147.979 328.415 147.979C326.419 147.979 324.371 148.879 322.297 150.693C320.223 152.507 318.162 154.79 316.141 157.557C314.119 160.323 312.136 163.311 310.219 166.534C308.301 169.757 306.475 172.772 304.753 175.59H323.08V176.582H304.258C299.066 185.455 294.409 193.063 290.301 199.391C286.192 205.72 282.239 210.913 278.457 214.972C274.674 219.03 271.165 222.501 267.461 224.55C258.33 229.599 252.708 228.412 249.838 227.525C232.594 222.175 242.782 203.815 251.808 203.893C251.808 203.893 243.538 206.346 244.008 214.776C244.164 217.595 246.317 224.889 254.965 225.737C257.873 226.024 260.665 225.072 263.313 223.754C265.961 222.436 268.517 220.609 270.97 218.273C273.435 215.95 275.835 213.21 278.196 210.078C280.544 206.934 282.892 203.554 285.253 199.9C287.601 196.247 289.975 192.436 292.349 188.456C294.723 184.476 297.162 180.523 299.64 176.569H293.888L293.862 176.595Z" fill="#201751"/>
<path d="M293.862 176.595V175.603H300.11C302.223 172.25 304.375 168.857 306.606 165.451C308.823 162.045 311.145 158.966 313.584 156.226C316.023 153.485 318.554 151.267 321.215 149.558C323.863 147.861 326.654 147 329.576 147C331.311 147 332.719 147.365 333.789 148.096C334.872 148.827 335.406 149.949 335.406 151.463C335.406 152.768 335.002 153.838 334.193 154.673C333.385 155.508 332.354 155.991 331.115 156.095C331.324 155.338 331.493 154.621 331.624 153.942C331.754 153.263 331.819 152.467 331.819 151.554C331.819 150.471 331.559 149.61 331.05 148.957C330.528 148.305 329.654 147.979 328.415 147.979C326.419 147.979 324.371 148.879 322.297 150.693C320.223 152.507 318.162 154.79 316.141 157.557C314.119 160.323 312.136 163.311 310.219 166.534C308.301 169.757 306.475 172.772 304.753 175.59H323.08V176.582H304.258C299.066 185.455 294.409 193.063 290.301 199.391C286.192 205.72 282.239 210.913 278.457 214.972C274.674 219.03 271.165 222.501 267.461 224.55C258.33 229.599 252.708 228.412 249.838 227.525C232.594 222.175 242.782 203.815 251.808 203.893C251.808 203.893 243.538 206.346 244.008 214.776C244.164 217.595 246.317 224.889 254.965 225.737C257.873 226.024 260.665 225.072 263.313 223.754C265.961 222.436 268.517 220.609 270.97 218.273C273.435 215.95 275.835 213.21 278.196 210.078C280.544 206.934 282.892 203.554 285.253 199.9C287.601 196.247 289.975 192.436 292.349 188.456C294.723 184.476 297.162 180.523 299.64 176.569H293.888L293.862 176.595Z" stroke="#201751" stroke-width="0.491226"/>
<path d="M341.876 175.603L331.167 190.453L331.324 190.609C332.458 189.252 333.776 187.673 335.302 185.859C336.815 184.046 338.433 182.336 340.167 180.705C341.902 179.074 343.689 177.704 345.555 176.582C347.407 175.46 349.259 174.885 351.098 174.885C352.716 174.885 353.968 175.329 354.855 176.229C355.742 177.13 356.185 178.278 356.185 179.687C356.185 180.549 355.872 181.579 355.259 182.767C354.633 183.967 353.864 185.233 352.95 186.577C352.024 187.934 351.033 189.317 349.95 190.714C348.868 192.123 347.876 193.467 346.95 194.733C346.024 196.012 345.268 197.173 344.641 198.23C344.015 199.287 343.715 200.161 343.715 200.866C343.715 202.379 344.472 203.136 345.985 203.136C347.72 203.136 349.546 202.549 351.503 201.388C353.446 200.226 355.768 198.269 358.468 195.503C359.551 194.42 360.646 193.232 361.755 191.927C362.864 190.622 363.933 189.344 364.964 188.065C365.994 186.799 366.92 185.585 367.768 184.45C368.603 183.315 369.268 182.362 369.751 181.606L370.325 181.932C369.242 183.55 367.847 185.494 366.138 187.739C364.442 189.983 362.59 192.188 360.581 194.354C359.394 195.659 358.168 196.899 356.929 198.086C355.69 199.274 354.437 200.318 353.198 201.205C351.959 202.105 350.72 202.81 349.507 203.319C348.294 203.828 347.081 204.089 345.894 204.089C344.328 204.089 343.024 203.658 342.007 202.797C340.976 201.936 340.467 200.735 340.467 199.222C340.467 197.603 341.12 195.829 342.411 193.911C343.702 191.992 345.137 190.048 346.702 188.104C348.268 186.16 349.689 184.294 350.981 182.506C352.285 180.718 352.924 179.152 352.924 177.795C352.924 177.143 352.703 176.66 352.285 176.334C351.855 176.008 351.281 175.838 350.576 175.838C349.233 175.838 347.72 176.334 346.037 177.339C344.368 178.343 342.646 179.661 340.898 181.305C339.137 182.95 337.389 184.789 335.628 186.812C333.867 188.835 332.237 190.857 330.724 192.893C329.211 194.915 327.854 196.86 326.667 198.726C325.48 200.592 324.58 202.145 323.993 203.384L318.958 203.462C320.367 201.075 321.867 198.66 323.458 196.194C325.049 193.728 326.641 191.301 328.206 188.887C329.771 186.473 331.271 184.15 332.706 181.906C334.141 179.661 335.419 177.613 336.554 175.773L341.824 175.564L341.876 175.603Z" fill="#201751"/>
<path d="M341.876 175.603L331.167 190.453L331.324 190.609C332.458 189.252 333.776 187.673 335.302 185.859C336.815 184.046 338.433 182.336 340.167 180.705C341.902 179.074 343.689 177.704 345.555 176.582C347.407 175.46 349.259 174.885 351.098 174.885C352.716 174.885 353.968 175.329 354.855 176.229C355.742 177.13 356.185 178.278 356.185 179.687C356.185 180.549 355.872 181.579 355.259 182.767C354.633 183.967 353.864 185.233 352.95 186.577C352.024 187.934 351.033 189.317 349.95 190.714C348.868 192.123 347.876 193.467 346.95 194.733C346.024 196.012 345.268 197.173 344.641 198.23C344.015 199.287 343.715 200.161 343.715 200.866C343.715 202.379 344.472 203.136 345.985 203.136C347.72 203.136 349.546 202.549 351.503 201.388C353.446 200.226 355.768 198.269 358.468 195.503C359.551 194.42 360.646 193.232 361.755 191.927C362.864 190.622 363.933 189.344 364.964 188.065C365.994 186.799 366.92 185.585 367.768 184.45C368.603 183.315 369.268 182.362 369.751 181.606L370.325 181.932C369.242 183.55 367.847 185.494 366.138 187.739C364.442 189.983 362.59 192.188 360.581 194.354C359.394 195.659 358.168 196.899 356.929 198.086C355.69 199.274 354.437 200.318 353.198 201.205C351.959 202.105 350.72 202.81 349.507 203.319C348.294 203.828 347.081 204.089 345.894 204.089C344.328 204.089 343.024 203.658 342.007 202.797C340.976 201.936 340.467 200.735 340.467 199.222C340.467 197.603 341.12 195.829 342.411 193.911C343.702 191.992 345.137 190.048 346.702 188.104C348.268 186.16 349.689 184.294 350.981 182.506C352.285 180.718 352.924 179.152 352.924 177.795C352.924 177.143 352.703 176.66 352.285 176.334C351.855 176.008 351.281 175.838 350.576 175.838C349.233 175.838 347.72 176.334 346.037 177.339C344.368 178.343 342.646 179.661 340.898 181.305C339.137 182.95 337.389 184.789 335.628 186.812C333.867 188.835 332.237 190.857 330.724 192.893C329.211 194.915 327.854 196.86 326.667 198.726C325.48 200.592 324.58 202.145 323.993 203.384L318.958 203.462C320.367 201.075 321.867 198.66 323.458 196.194C325.049 193.728 326.641 191.301 328.206 188.887C329.771 186.473 331.271 184.15 332.706 181.906C334.141 179.661 335.419 177.613 336.554 175.773L341.824 175.564L341.876 175.603Z" stroke="#201751" stroke-width="0.491226"/>
<path d="M383.787 176.451C383.382 176.073 382.887 175.89 382.287 175.89C381.152 175.89 379.926 176.334 378.595 177.234C377.265 178.122 375.947 179.231 374.656 180.562C373.365 181.88 372.178 183.302 371.121 184.816C370.065 186.329 369.269 187.686 368.721 188.874C369.908 188.652 371.395 188.235 373.182 187.621C374.969 187.008 376.691 186.225 378.334 185.312C379.978 184.398 381.4 183.328 382.6 182.102C383.787 180.888 384.387 179.57 384.387 178.161C384.387 177.404 384.191 176.843 383.787 176.451ZM397.535 182.493C396.726 183.85 395.709 185.338 394.496 186.956C393.283 188.574 391.9 190.192 390.361 191.784C388.822 193.376 387.165 194.929 385.417 196.416C383.656 197.904 381.83 199.222 379.939 200.396C378.047 201.557 376.143 202.471 374.226 203.136C372.308 203.802 370.43 204.141 368.591 204.141C366.321 204.141 364.56 203.554 363.321 202.393C362.082 201.231 361.456 199.561 361.456 197.395C361.456 195.007 362.173 192.515 363.608 189.879C365.043 187.256 366.869 184.829 369.073 182.61C371.291 180.392 373.73 178.552 376.378 177.091C379.026 175.629 381.569 174.899 383.995 174.899C385.339 174.899 386.396 175.186 387.165 175.747C387.922 176.308 388.3 177.143 388.3 178.226C388.3 179.531 387.596 180.784 386.187 182.01C384.778 183.237 383.056 184.346 381.034 185.338C379.013 186.342 376.834 187.23 374.513 188.026C372.191 188.809 370.143 189.396 368.356 189.774C367.756 190.857 367.273 192.084 366.895 193.441C366.517 194.798 366.321 196.142 366.321 197.499C366.321 198.152 366.386 198.791 366.53 199.404C366.66 200.031 366.882 200.592 367.182 201.114C367.482 201.636 367.886 202.04 368.395 202.366C368.904 202.693 369.543 202.849 370.299 202.849C372.086 202.849 374.173 202.262 376.587 201.101C379 199.939 381.439 198.387 383.93 196.429C386.422 194.485 388.796 192.267 391.065 189.774C393.335 187.282 395.278 184.711 396.909 182.062L397.561 182.467L397.535 182.493Z" fill="#201751"/>
<path d="M383.787 176.451C383.382 176.073 382.887 175.89 382.287 175.89C381.152 175.89 379.926 176.334 378.595 177.234C377.265 178.122 375.947 179.231 374.656 180.562C373.365 181.88 372.178 183.302 371.121 184.816C370.065 186.329 369.269 187.686 368.721 188.874C369.908 188.652 371.395 188.235 373.182 187.621C374.969 187.008 376.691 186.225 378.334 185.312C379.978 184.398 381.4 183.328 382.6 182.102C383.787 180.888 384.387 179.57 384.387 178.161C384.387 177.404 384.191 176.843 383.787 176.451ZM397.535 182.493C396.726 183.85 395.709 185.338 394.496 186.956C393.283 188.574 391.9 190.192 390.361 191.784C388.822 193.376 387.165 194.929 385.417 196.416C383.656 197.904 381.83 199.222 379.939 200.396C378.047 201.557 376.143 202.471 374.226 203.136C372.308 203.802 370.43 204.141 368.591 204.141C366.321 204.141 364.56 203.554 363.321 202.393C362.082 201.231 361.456 199.561 361.456 197.395C361.456 195.007 362.173 192.515 363.608 189.879C365.043 187.256 366.869 184.829 369.073 182.61C371.291 180.392 373.73 178.552 376.378 177.091C379.026 175.629 381.569 174.899 383.995 174.899C385.339 174.899 386.396 175.186 387.165 175.747C387.922 176.308 388.3 177.143 388.3 178.226C388.3 179.531 387.596 180.784 386.187 182.01C384.778 183.237 383.056 184.346 381.034 185.338C379.013 186.342 376.834 187.23 374.513 188.026C372.191 188.809 370.143 189.396 368.356 189.774C367.756 190.857 367.273 192.084 366.895 193.441C366.517 194.798 366.321 196.142 366.321 197.499C366.321 198.152 366.386 198.791 366.53 199.404C366.66 200.031 366.882 200.592 367.182 201.114C367.482 201.636 367.886 202.04 368.395 202.366C368.904 202.693 369.543 202.849 370.299 202.849C372.086 202.849 374.173 202.262 376.587 201.101C379 199.939 381.439 198.387 383.93 196.429C386.422 194.485 388.796 192.267 391.065 189.774C393.335 187.282 395.278 184.711 396.909 182.062L397.561 182.467L397.535 182.493Z" stroke="#201751" stroke-width="0.491226"/>
<path d="M400.326 199.783H403.861C416.11 199.783 424.092 194.824 424.092 181.58C424.092 168.335 416.24 164.003 406.574 164.003H400.326V199.783ZM396.061 160.284H406.77C422.24 160.284 428.371 169.196 428.371 181.828C428.371 197.486 417.91 203.502 403.613 203.502H396.061V160.284Z" fill="#201751"/>
<path d="M400.326 199.783H403.861C416.11 199.783 424.092 194.824 424.092 181.58C424.092 168.335 416.24 164.003 406.574 164.003H400.326V199.783ZM396.061 160.284H406.77C422.24 160.284 428.371 169.196 428.371 181.828C428.371 197.486 417.91 203.502 403.613 203.502H396.061V160.284Z" stroke="#201751" stroke-width="0.491226"/>
<path d="M441.428 160.284H437.149V203.502H441.428V160.284Z" fill="#201751"/>
<path d="M441.428 160.284H437.149V203.502H441.428V160.284Z" stroke="#201751" stroke-width="0.491226"/>
<path d="M450.885 160.284H456.272L478.238 198.295H478.368V160.284H482.634V203.502H476.881L455.281 166.221H455.15V203.502H450.885V160.284Z" fill="#201751"/>
<path d="M450.885 160.284H456.272L478.238 198.295H478.368V160.284H482.634V203.502H476.881L455.281 166.221H455.15V203.502H450.885V160.284Z" stroke="#201751" stroke-width="0.491226"/>
<path d="M496.434 160.284H492.168V203.502H496.434V160.284Z" fill="#201751"/>
<path d="M496.434 160.284H492.168V203.502H496.434V160.284Z" stroke="#201751" stroke-width="0.491226"/>
<path d="M505.904 160.284H511.291L533.257 198.295H533.374V160.284H537.653V203.502H531.9L510.3 166.221H510.169V203.502H505.904V160.284Z" fill="#201751"/>
<path d="M505.904 160.284H511.291L533.257 198.295H533.374V160.284H537.653V203.502H531.9L510.3 166.221H510.169V203.502H505.904V160.284Z" stroke="#201751" stroke-width="0.491226"/>
<path d="M577.319 183.811H567.288V180.092H581.584V201.571C577.188 203.489 572.923 204.232 568.149 204.232C554.531 204.232 546.366 195.255 546.366 181.88C546.366 168.505 554.779 159.54 568.149 159.54C571.423 159.54 576.81 160.088 579.719 161.576L579.223 165.529C575.884 163.677 571.919 163.246 568.149 163.246C556.944 163.246 550.631 171.167 550.631 181.88C550.631 192.593 556.762 200.514 568.149 200.514C570.81 200.514 575.258 200.2 577.306 198.974V183.798L577.319 183.811Z" fill="#201751"/>
<path d="M577.319 183.811H567.288V180.092H581.584V201.571C577.188 203.489 572.923 204.232 568.149 204.232C554.531 204.232 546.366 195.255 546.366 181.88C546.366 168.505 554.779 159.54 568.149 159.54C571.423 159.54 576.81 160.088 579.719 161.576L579.223 165.529C575.884 163.677 571.919 163.246 568.149 163.246C556.944 163.246 550.631 171.167 550.631 181.88C550.631 192.593 556.762 200.514 568.149 200.514C570.81 200.514 575.258 200.2 577.306 198.974V183.798L577.319 183.811Z" stroke="#201751" stroke-width="0.491226"/>
<path d="M331.402 161.223C331.885 161.732 332.133 162.372 332.133 163.128C332.133 163.885 331.885 164.525 331.402 165.034C330.92 165.542 330.294 165.803 329.537 165.803C328.781 165.803 328.154 165.542 327.659 165.034C327.176 164.525 326.928 163.885 326.928 163.128C326.928 162.372 327.163 161.732 327.659 161.223C328.141 160.714 328.768 160.453 329.537 160.453C330.307 160.453 330.92 160.714 331.402 161.223ZM324.828 175.551C321.854 179.831 319.337 183.432 317.276 186.342C315.215 189.265 313.558 191.705 312.28 193.65C311.002 195.594 310.089 197.134 309.515 198.269C308.941 199.404 308.667 200.318 308.667 201.022C308.667 202.432 309.241 203.136 310.363 203.136C311.484 203.136 312.697 202.745 314.132 201.962C315.567 201.179 317.067 200.161 318.632 198.922C320.198 197.682 321.776 196.273 323.341 194.707C324.907 193.141 326.381 191.588 327.763 190.035C329.146 188.495 330.359 187.008 331.415 185.572C332.472 184.137 333.242 182.963 333.724 182.036L334.376 182.441C333.724 183.524 332.85 184.829 331.742 186.329C330.633 187.843 329.381 189.396 327.972 191.001C326.563 192.593 325.076 194.172 323.511 195.751C321.946 197.316 320.341 198.726 318.724 199.965C317.093 201.205 315.515 202.21 313.976 202.98C312.437 203.737 311.015 204.115 309.71 204.115C308.249 204.115 307.167 203.71 306.475 202.901C305.771 202.092 305.419 201.205 305.419 200.226C305.419 199.091 305.68 197.891 306.189 196.625C306.697 195.359 307.532 193.806 308.667 191.966C309.802 190.127 311.276 187.908 313.089 185.272C314.902 182.65 317.08 179.426 319.611 175.59L324.802 175.538L324.828 175.551Z" fill="#201751"/>
<path d="M331.402 161.223C331.885 161.732 332.133 162.372 332.133 163.128C332.133 163.885 331.885 164.525 331.402 165.034C330.92 165.542 330.294 165.803 329.537 165.803C328.781 165.803 328.154 165.542 327.659 165.034C327.176 164.525 326.928 163.885 326.928 163.128C326.928 162.372 327.163 161.732 327.659 161.223C328.141 160.714 328.768 160.453 329.537 160.453C330.307 160.453 330.92 160.714 331.402 161.223ZM324.828 175.551C321.854 179.831 319.337 183.432 317.276 186.342C315.215 189.265 313.558 191.705 312.28 193.65C311.002 195.594 310.089 197.134 309.515 198.269C308.941 199.404 308.667 200.318 308.667 201.022C308.667 202.432 309.241 203.136 310.363 203.136C311.484 203.136 312.697 202.745 314.132 201.962C315.567 201.179 317.067 200.161 318.632 198.922C320.198 197.682 321.776 196.273 323.341 194.707C324.907 193.141 326.381 191.588 327.763 190.035C329.146 188.495 330.359 187.008 331.415 185.572C332.472 184.137 333.242 182.963 333.724 182.036L334.376 182.441C333.724 183.524 332.85 184.829 331.742 186.329C330.633 187.843 329.381 189.396 327.972 191.001C326.563 192.593 325.076 194.172 323.511 195.751C321.946 197.316 320.341 198.726 318.724 199.965C317.093 201.205 315.515 202.21 313.976 202.98C312.437 203.737 311.015 204.115 309.71 204.115C308.249 204.115 307.167 203.71 306.475 202.901C305.771 202.092 305.419 201.205 305.419 200.226C305.419 199.091 305.68 197.891 306.189 196.625C306.697 195.359 307.532 193.806 308.667 191.966C309.802 190.127 311.276 187.908 313.089 185.272C314.902 182.65 317.08 179.426 319.611 175.59L324.802 175.538L324.828 175.551Z" stroke="#201751" stroke-width="0.491226"/>
</g>
<defs>
<clipPath id="clip0_122_14">
<rect width="641" height="376" fill="white"/>
</clipPath>
</defs>
</svg>
